<?xml version="1.0" encoding="UTF-8" standalone="no"?>
<!-- Created with Inkscape (http://www.inkscape.org/) -->

<svg
   xmlns:dc="http://purl.org/dc/elements/1.1/"
   xmlns:cc="http://creativecommons.org/ns#"
   xmlns:rdf="http://www.w3.org/1999/02/22-rdf-syntax-ns#"
   xmlns:svg="http://www.w3.org/2000/svg"
   xmlns="http://www.w3.org/2000/svg"
   xmlns:sodipodi="http://sodipodi.sourceforge.net/DTD/sodipodi-0.dtd"
   xmlns:inkscape="http://www.inkscape.org/namespaces/inkscape"
   width="40.430332mm"
   height="45.052391mm"
   viewBox="0 0 40.430332 45.052391"
   version="1.1"
   id="svg8"
   inkscape:version="0.92.4 (5da689c313, 2019-01-14)"
   sodipodi:docname="logo.svg">
  <defs
     id="defs2">
    <meshgradient
       inkscape:collect="always"
       id="meshgradient890"
       gradientUnits="userSpaceOnUse"
       x="68.522385"
       y="150.12021">
      <meshrow
         id="meshrow892">
        <meshpatch
           id="meshpatch894">
          <stop
             path="c 8.66212,0  17.3242,0  25.9864,0"
             style="stop-color:#000000;stop-opacity:1"
             id="stop896" />
          <stop
             path="c 0,1.82246  0,3.64491  0,5.46737"
             style="stop-color:#ffffff;stop-opacity:1"
             id="stop898" />
          <stop
             path="c -8.66212,0  -17.3242,0  -25.9864,0"
             style="stop-color:#000000;stop-opacity:1"
             id="stop900" />
          <stop
             path="c 0,-1.82246  0,-3.64491  0,-5.46737"
             style="stop-color:#ffffff;stop-opacity:1"
             id="stop902" />
        </meshpatch>
      </meshrow>
    </meshgradient>
  </defs>
  <sodipodi:namedview
     id="base"
     pagecolor="#ffffff"
     bordercolor="#666666"
     borderopacity="1.0"
     inkscape:pageopacity="0.0"
     inkscape:pageshadow="2"
     inkscape:zoom="2.8"
     inkscape:cx="130.0078"
     inkscape:cy="48.675331"
     inkscape:document-units="mm"
     inkscape:current-layer="layer1"
     showgrid="false"
     inkscape:window-width="1920"
     inkscape:window-height="1001"
     inkscape:window-x="-9"
     inkscape:window-y="-9"
     inkscape:window-maximized="1"
     fit-margin-top="0"
     fit-margin-left="0"
     fit-margin-right="0"
     fit-margin-bottom="0" />
  <metadata
     id="metadata5">
    <rdf:RDF>
      <cc:Work
         rdf:about="">
        <dc:format>image/svg+xml</dc:format>
        <dc:type
           rdf:resource="http://purl.org/dc/dcmitype/StillImage" />
        <dc:title></dc:title>
      </cc:Work>
    </rdf:RDF>
  </metadata>
  <g
     inkscape:label="Layer 1"
     inkscape:groupmode="layer"
     id="layer1"
     transform="translate(-61.427691,-116.47976)">
    <g
       transform="matrix(0.26458333,0,0,0.26458333,30.219501,102.5731)"
       id="g880"
       style="display:inline;fill:#52bdec;fill-opacity:1">
      <path
         inkscape:connector-curvature="0"
         id="path833"
         d="M 119.47547,179.57659 118.4558,95.39323 194.35599,53.409164 194.24999,136.75 119.47547,179.57659"
         style="fill:#52bdec;fill-opacity:1;stroke:#000000;stroke-width:1px;stroke-linecap:butt;stroke-linejoin:miter;stroke-opacity:1" />
      <path
         inkscape:connector-curvature="0"
         id="path833-5"
         d="m 269.23652,179.57658 1.01967,-84.18335 -75.9002,-41.984066 0.106,83.340836 74.77453,42.82658"
         style="display:inline;fill:#52bdec;fill-opacity:1;stroke:#000000;stroke-width:1px;stroke-linecap:butt;stroke-linejoin:miter;stroke-opacity:1" />
      <path
         inkscape:connector-curvature="0"
         id="path851"
         d="M 119.47547,179.57659 194.46199,136.75"
         style="fill:#52bdec;fill-opacity:1;stroke:#000000;stroke-width:1px;stroke-linecap:butt;stroke-linejoin:miter;stroke-opacity:1" />
      <path
         inkscape:connector-curvature="0"
         id="path855"
         d="M 119.47547,179.57659 194.24999,136.75"
         style="fill:#52bdec;fill-opacity:1;stroke:#000000;stroke-width:1px;stroke-linecap:butt;stroke-linejoin:miter;stroke-opacity:1" />
      <path
         inkscape:connector-curvature="0"
         id="path857"
         d="M 194.462,222.40317 119.47547,179.57659"
         style="fill:#52bdec;fill-opacity:1;stroke:#000000;stroke-width:1px;stroke-linecap:butt;stroke-linejoin:miter;stroke-opacity:1" />
      <path
         inkscape:connector-curvature="0"
         id="path855-2"
         d="m 194.462,222.40317 74.77452,-42.82659"
         style="display:inline;fill:#52bdec;fill-opacity:1;stroke:#000000;stroke-width:1px;stroke-linecap:butt;stroke-linejoin:miter;stroke-opacity:1" />
    </g>
    <path
       style="display:inline;fill:#1d8db0;fill-opacity:1;fill-rule:nonzero;stroke:#000000;stroke-width:0.09354433;stroke-miterlimit:4;stroke-dasharray:none;stroke-opacity:1"
       d="m 61.934246,144.46461 c -0.03392,-2.89402 -0.08742,-7.80861 -0.118885,-10.92129 l -0.0572,-5.65944 9.745364,-5.3788 c 5.35995,-2.95833 9.784461,-5.39283 9.832248,-5.40998 0.05316,-0.0191 0.08688,4.15862 0.08688,10.76333 v 10.7945 l -9.666763,5.53678 c -5.316721,3.04522 -9.687735,5.53677 -9.713365,5.53677 -0.02564,0 -0.07436,-2.36784 -0.108279,-5.26187 z"
       id="path882"
       inkscape:connector-curvature="0" />
    <path
       style="display:inline;fill:#1d8db0;fill-opacity:1;fill-rule:nonzero;stroke:#000000;stroke-width:0.09354433;stroke-miterlimit:4;stroke-dasharray:none;stroke-opacity:1"
       d="m 91.525439,144.20357 -9.588293,-5.5051 -0.06988,-1.43166 c -0.03844,-0.78741 -0.05948,-5.66511 -0.04677,-10.83932 l 0.02312,-9.40766 9.762037,5.39997 c 5.36912,2.96999 9.803127,5.44106 9.853337,5.49128 0.0594,0.0594 0.055,3.39094 -0.0124,9.5268 -0.10565,9.61383 -0.16517,12.29556 -0.27254,12.27969 -0.0332,-0.005 -4.37504,-2.4862 -9.648604,-5.514 z"
       id="path884"
       inkscape:connector-curvature="0" />
    <path
       style="display:inline;fill:#1d8db0;fill-opacity:1;fill-rule:nonzero;stroke:#000000;stroke-width:0.09354433;stroke-miterlimit:4;stroke-dasharray:none;stroke-opacity:1"
       d="m 72.032591,155.70858 c -5.293159,-3.0258 -9.658311,-5.53592 -9.700337,-5.57807 -0.04203,-0.0421 4.292129,-2.57249 9.631455,-5.623 l 9.707867,-5.54639 9.689961,5.54639 c 5.329479,3.05051 9.661873,5.57528 9.627533,5.6106 -0.0506,0.052 -18.710217,10.76431 -19.19224,11.01805 -0.09744,0.0513 -3.081364,-1.60737 -9.764239,-5.42758 z"
       id="path886"
       inkscape:connector-curvature="0" />
    <path
       style="display:inline;fill:#ffffff;fill-opacity:1;fill-rule:nonzero;stroke:#000000;stroke-width:0.26458332;stroke-miterlimit:4;stroke-dasharray:none;stroke-opacity:1"
       d="m 80.097489,123.42415 -6.943566,4.00707 m -1.170588,-2.18886 7.055821,-3.93488"
       id="rect4653"
       inkscape:connector-curvature="0"
       sodipodi:nodetypes="cccc" />
    <path
       style="display:inline;fill:#ffffff;fill-opacity:1;fill-rule:nonzero;stroke:#000000;stroke-width:0.26458332;stroke-miterlimit:4;stroke-dasharray:none;stroke-opacity:1"
       d="m 91.925613,129.38156 -0.125717,8.00267 m 2.513444,0.14319 0.0026,-8.0757"
       id="rect4653-5-1-1"
       inkscape:connector-curvature="0"
       sodipodi:nodetypes="cccc" />
    <path
       style="display:inline;fill:#ffffff;fill-opacity:1;fill-rule:nonzero;stroke:#000000;stroke-width:0.26458332;stroke-miterlimit:4;stroke-dasharray:none;stroke-opacity:1"
       d="m 69.384772,129.60439 -0.125716,8.00267 m 2.481926,-0.0374 0.03407,-7.89514"
       id="rect4653-5-1-1-1"
       inkscape:connector-curvature="0"
       sodipodi:nodetypes="cccc" />
    <path
       style="display:inline;fill:#ffffff;fill-opacity:1;fill-rule:nonzero;stroke:#000000;stroke-width:0.26458332;stroke-miterlimit:4;stroke-dasharray:none;stroke-opacity:1"
       d="m 78.774573,133.47831 -6.614583,-3.70416 m 1.322917,-2.11667 6.879166,3.96875"
       id="rect4653-6"
       inkscape:connector-curvature="0"
       sodipodi:nodetypes="cccc" />
    <path
       style="display:inline;fill:#ffffff;fill-opacity:1;fill-rule:nonzero;stroke:#000000;stroke-width:0.26458332;stroke-miterlimit:4;stroke-dasharray:none;stroke-opacity:1"
       d="m 80.362073,135.59498 -0.10918,8.11015 m 2.481926,-0.0374 0.0093,-7.98767"
       id="rect4653-5-1-1-5-9"
       inkscape:connector-curvature="0"
       sodipodi:nodetypes="cccc" />
    <path
       style="display:inline;fill:#ffffff;fill-opacity:1;fill-rule:nonzero;stroke:#000000;stroke-width:0.26458332;stroke-miterlimit:4;stroke-dasharray:none;stroke-opacity:1"
       d="m 78.774573,146.17831 -6.614583,-3.70416 m 1.322917,-2.11667 6.879166,3.96875"
       id="rect4653-6-5"
       inkscape:connector-curvature="0"
       sodipodi:nodetypes="cccc" />
    <path
       style="display:inline;fill:#ffffff;fill-opacity:1;fill-rule:nonzero;stroke:#000000;stroke-width:0.26458332;stroke-miterlimit:4;stroke-dasharray:none;stroke-opacity:1"
       d="m 83.511713,123.12139 6.727856,4.34051 m 1.170588,-2.18886 -6.899888,-4.164"
       id="rect4653-5"
       inkscape:connector-curvature="0"
       sodipodi:nodetypes="cccc" />
    <path
       style="display:inline;fill:#ffffff;fill-opacity:1;fill-rule:nonzero;stroke:#000000;stroke-width:0.04677217;stroke-miterlimit:4;stroke-dasharray:none;stroke-opacity:1"
       d="m 86.97223,125.17302 c -1.696236,-1.09428 -3.092384,-1.99793 -3.102552,-2.0081 -0.01016,-0.0102 0.06714,-0.1319 0.171802,-0.27051 0.237863,-0.31505 0.492723,-0.86401 0.564886,-1.21676 0.03026,-0.14791 0.06708,-0.26894 0.08182,-0.26894 0.01474,0 1.430031,0.84701 3.145089,1.88225 l 3.118288,1.88225 -0.209362,0.25704 c -0.285081,0.35 -0.511485,0.8462 -0.606602,1.32945 l -0.07931,0.40293 z"
       id="path4850"
       inkscape:connector-curvature="0" />
    <path
       style="display:inline;fill:#ffffff;fill-opacity:1;fill-rule:nonzero;stroke:#000000;stroke-width:0.04677217;stroke-miterlimit:4;stroke-dasharray:none;stroke-opacity:1"
       d="m 73.521946,126.82041 c -0.142029,-0.55583 -0.388104,-0.99516 -0.784021,-1.39976 -0.144085,-0.14725 -0.252651,-0.27591 -0.241261,-0.28591 0.03649,-0.032 6.249226,-3.48913 6.317229,-3.51522 0.04725,-0.0181 0.08135,0.0433 0.122772,0.22114 0.0887,0.3808 0.371626,0.89516 0.673777,1.22491 l 0.274378,0.29943 -0.152423,0.0926 c -0.08383,0.051 -1.3837,0.80256 -2.888594,1.67024 -1.504895,0.86769 -2.856648,1.64771 -3.003897,1.73337 l -0.267724,0.15577 z"
       id="path4852"
       inkscape:connector-curvature="0" />
    <path
       style="display:inline;fill:#ffffff;fill-opacity:1;fill-rule:nonzero;stroke:#000000;stroke-width:0.04677217;stroke-miterlimit:4;stroke-dasharray:none;stroke-opacity:1"
       d="m 75.604341,131.53118 -3.133736,-1.75511 0.30402,-0.31452 c 0.326308,-0.33757 0.610812,-0.83739 0.710081,-1.24749 0.03114,-0.12862 0.07114,-0.25146 0.0889,-0.27298 0.01775,-0.0215 1.440008,0.77301 3.160546,1.76562 l 3.128254,1.80475 -0.282226,0.295 c -0.301329,0.31496 -0.594754,0.83142 -0.69428,1.222 -0.03233,0.12689 -0.07882,0.23682 -0.103309,0.24428 -0.02447,0.007 -1.454698,-0.77624 -3.178252,-1.74155 z"
       id="path4854"
       inkscape:connector-curvature="0" />
    <path
       style="display:inline;fill:#ffffff;fill-opacity:1;fill-rule:nonzero;stroke:#000000;stroke-width:0.04677217;stroke-miterlimit:4;stroke-dasharray:none;stroke-opacity:1"
       d="m 69.434366,135.94874 c 0.01553,-0.78124 0.04203,-2.39213 0.05891,-3.57975 0.01688,-1.18763 0.04151,-2.17015 0.05474,-2.18338 0.01323,-0.0132 0.170632,0.0166 0.349779,0.0663 0.389573,0.10803 1.100563,0.12115 1.463469,0.027 l 0.244054,-0.0633 v 3.52445 c 0,1.93844 -0.0158,3.5242 -0.03508,3.52389 -0.01929,-2.6e-4 -0.150842,-0.0316 -0.292328,-0.0696 -0.479896,-0.12881 -1.07669,-0.0812 -1.766093,0.14081 l -0.105685,0.034 z"
       id="path4856"
       inkscape:connector-curvature="0" />
    <path
       style="display:inline;fill:#ffffff;fill-opacity:1;fill-rule:nonzero;stroke:#000000;stroke-width:0.04677217;stroke-miterlimit:4;stroke-dasharray:none;stroke-opacity:1"
       d="m 75.953086,144.42819 c -1.403123,-0.78877 -2.789907,-1.56805 -3.081748,-1.73173 l -0.530617,-0.29762 0.217551,-0.18595 c 0.398561,-0.34068 0.750602,-0.91083 0.883828,-1.4314 l 0.0609,-0.23795 2.968332,1.71085 c 1.632579,0.94098 2.976099,1.7176 2.985595,1.72585 0.0095,0.008 -0.08123,0.12648 -0.201615,0.26276 -0.276791,0.31333 -0.565632,0.90285 -0.642742,1.31184 -0.03274,0.17364 -0.07051,0.31386 -0.08394,0.31159 -0.01341,-0.002 -1.172422,-0.64948 -2.575541,-1.43824 z"
       id="path4858"
       inkscape:connector-curvature="0" />
    <path
       style="display:inline;fill:#ffffff;fill-opacity:1;fill-rule:nonzero;stroke:#000000;stroke-width:0.04677217;stroke-miterlimit:4;stroke-dasharray:none;stroke-opacity:1"
       d="m 80.416236,142.4163 c 0.01558,-0.55687 0.04158,-2.11884 0.05775,-3.47106 l 0.02939,-2.45857 0.373808,0.10827 c 0.438349,0.12696 1.085215,0.1453 1.474047,0.0418 l 0.245554,-0.0654 v 3.43352 c 0,1.88844 -0.01079,3.43352 -0.02397,3.43352 -0.0132,0 -0.175884,-0.0421 -0.361545,-0.0935 -0.444103,-0.12307 -1.069684,-0.12507 -1.503373,-0.005 l -0.320003,0.0887 z"
       id="path4860"
       inkscape:connector-curvature="0" />
    <ellipse
       style="fill:#ffffff;fill-opacity:1;fill-rule:nonzero;stroke:#000000;stroke-width:0.26458332;stroke-miterlimit:4;stroke-dasharray:none;stroke-opacity:1"
       id="path893"
       cx="70.680763"
       cy="127.45519"
       rx="2.7595577"
       ry="2.759558" />
    <ellipse
       style="fill:#ffffff;fill-opacity:1;fill-rule:nonzero;stroke:#000000;stroke-width:0.26458332;stroke-miterlimit:4;stroke-dasharray:none;stroke-opacity:1"
       id="path893-9-2"
       cx="92.995499"
       cy="127.2606"
       rx="2.7595577"
       ry="2.759558" />
    <ellipse
       style="fill:#ffffff;fill-opacity:1;fill-rule:nonzero;stroke:#000000;stroke-width:0.26458332;stroke-miterlimit:4;stroke-dasharray:none;stroke-opacity:1"
       id="path893-9-8"
       cx="92.929352"
       cy="139.96062"
       rx="2.7595577"
       ry="2.759558" />
    <ellipse
       style="fill:#ffffff;fill-opacity:1;fill-rule:nonzero;stroke:#000000;stroke-width:0.26458332;stroke-miterlimit:4;stroke-dasharray:none;stroke-opacity:1"
       id="path893-9-3"
       cx="70.638206"
       cy="140.02676"
       rx="2.7595577"
       ry="2.759558" />
    <ellipse
       style="fill:#ffffff;fill-opacity:1;fill-rule:nonzero;stroke:#000000;stroke-width:0.26458332;stroke-miterlimit:4;stroke-dasharray:none;stroke-opacity:1"
       id="path893-9-7"
       cx="81.684563"
       cy="133.80905"
       rx="2.7595577"
       ry="2.759558" />
    <ellipse
       style="fill:#ffffff;fill-opacity:1;fill-rule:nonzero;stroke:#000000;stroke-width:0.26458332;stroke-miterlimit:4;stroke-dasharray:none;stroke-opacity:1"
       id="path893-9-3-7"
       cx="81.453056"
       cy="146.14525"
       rx="2.7595577"
       ry="2.759558" />
    <ellipse
       style="fill:#ffffff;fill-opacity:1;fill-rule:nonzero;stroke:#000000;stroke-width:0.26458332;stroke-miterlimit:4;stroke-dasharray:none;stroke-opacity:1"
       id="path893-6"
       cx="81.727119"
       cy="121.56819"
       rx="2.7595577"
       ry="2.759558" />
    <path
       style="fill:#ffffff;fill-opacity:1;fill-rule:nonzero;stroke:#000000;stroke-width:0.09354433;stroke-miterlimit:4;stroke-dasharray:none;stroke-opacity:1"
       d="m 93.700948,137.14009 c -0.128622,-0.0528 -0.565623,-0.0778 -0.971116,-0.0556 l -0.737256,0.0403 0.04262,-3.4923 c 0.02344,-1.92077 0.06057,-3.51026 0.08252,-3.53221 0.02193,-0.0219 0.232974,-0.004 0.468953,0.0403 0.284567,0.0532 0.623181,0.0401 1.005528,-0.0386 l 0.576474,-0.11879 v 3.63237 c 0,3.88554 0.02127,3.72517 -0.467723,3.5246 z"
       id="path4879"
       inkscape:connector-curvature="0" />
    <text
       xml:space="preserve"
       style="font-style:normal;font-variant:normal;font-weight:normal;font-stretch:normal;font-size:16.93333244px;line-height:1.25;font-family:sans-serif;-inkscape-font-specification:'sans-serif, Normal';font-variant-ligatures:normal;font-variant-caps:normal;font-variant-numeric:normal;font-feature-settings:normal;text-align:center;letter-spacing:0px;word-spacing:0px;writing-mode:lr-tb;text-anchor:middle;fill:#ffffff;fill-opacity:1;stroke:#000000;stroke-width:0.1;stroke-miterlimit:4;stroke-dasharray:none;stroke-opacity:1"
       x="81.283333"
       y="153.97739"
       id="text880"><tspan
         sodipodi:role="line"
         id="tspan878"
         x="81.283333"
         y="153.97739"
         style="font-style:normal;font-variant:normal;font-weight:normal;font-stretch:normal;font-size:6.3499999px;font-family:sans-serif;-inkscape-font-specification:'sans-serif, Normal';font-variant-ligatures:normal;font-variant-caps:normal;font-variant-numeric:normal;font-feature-settings:normal;text-align:center;writing-mode:lr-tb;text-anchor:middle;fill:#ffffff;fill-opacity:1;stroke:#000000;stroke-width:0.1;stroke-miterlimit:4;stroke-dasharray:none;stroke-opacity:1">mldoeR</tspan></text>
  </g>
</svg>
