<?xml version="1.0" encoding="UTF-8" standalone="no"?>
<!-- Created with Inkscape (http://www.inkscape.org/) -->

<svg
   xmlns:dc="http://purl.org/dc/elements/1.1/"
   xmlns:cc="http://creativecommons.org/ns#"
   xmlns:rdf="http://www.w3.org/1999/02/22-rdf-syntax-ns#"
   xmlns:svg="http://www.w3.org/2000/svg"
   xmlns="http://www.w3.org/2000/svg"
   xmlns:sodipodi="http://sodipodi.sourceforge.net/DTD/sodipodi-0.dtd"
   xmlns:inkscape="http://www.inkscape.org/namespaces/inkscape"
   width="40.451595mm"
   height="44.949978mm"
   viewBox="0 0 40.451595 44.949978"
   version="1.1"
   id="svg8"
   inkscape:version="0.92.4 (5da689c313, 2019-01-14)"
   sodipodi:docname="logo.svg"
   inkscape:export-filename="C:\Users\u0133728\Documents\R\mldoeR\man\figures\logoHD.png"
   inkscape:export-xdpi="300.05353"
   inkscape:export-ydpi="300.05353">
  <defs
     id="defs2" />
  <sodipodi:namedview
     id="base"
     pagecolor="#ffffff"
     bordercolor="#666666"
     borderopacity="1.0"
     inkscape:pageopacity="0.0"
     inkscape:pageshadow="2"
     inkscape:zoom="4"
     inkscape:cx="13.757239"
     inkscape:cy="79.205932"
     inkscape:document-units="mm"
     inkscape:current-layer="svg8"
     showgrid="true"
     inkscape:window-width="1920"
     inkscape:window-height="1001"
     inkscape:window-x="-9"
     inkscape:window-y="-9"
     inkscape:window-maximized="1"
     fit-margin-top="0"
     fit-margin-left="0"
     fit-margin-right="0"
     fit-margin-bottom="0"
     showguides="true"
     inkscape:guide-bbox="true">
    <inkscape:grid
       type="xygrid"
       id="grid852"
       originx="-0.015072774"
       originy="-0.01458466" />
    <sodipodi:guide
       position="0.24951055,11.362499"
       orientation="0,1"
       id="guide854"
       inkscape:locked="false" />
    <sodipodi:guide
       position="0.265,11.377084"
       orientation="1,0"
       id="guide856"
       inkscape:locked="false"
       inkscape:label=""
       inkscape:color="rgb(0,255,20)" />
    <sodipodi:guide
       position="20.09326,22.739582"
       orientation="0,1"
       id="guide4648"
       inkscape:locked="false" />
    <sodipodi:guide
       position="20.09326,22.739582"
       orientation="1,0"
       id="guide4650"
       inkscape:locked="false" />
    <sodipodi:guide
       position="40.201592,33.587499"
       orientation="1,0"
       id="guide4652"
       inkscape:locked="false" />
    <sodipodi:guide
       position="0.24951055,33.852083"
       orientation="0,1"
       id="guide4654"
       inkscape:locked="false" />
  </sodipodi:namedview>
  <metadata
     id="metadata5">
    <rdf:RDF>
      <cc:Work
         rdf:about="">
        <dc:format>image/svg+xml</dc:format>
        <dc:type
           rdf:resource="http://purl.org/dc/dcmitype/StillImage" />
        <dc:title />
      </cc:Work>
    </rdf:RDF>
  </metadata>
  <g
     inkscape:label="Background"
     inkscape:groupmode="layer"
     id="layer1"
     transform="translate(-61.442764,-116.56759)"
     style="display:inline">
    <g
       transform="matrix(0.26458333,0,0,0.26458333,30.219501,102.5731)"
       id="g880"
       style="display:inline;fill:#52bdec;fill-opacity:1;stroke-width:1.88976383;stroke-miterlimit:4;stroke-dasharray:none" />
    <path
       style="display:inline;fill:#1d8db0;fill-opacity:1;fill-rule:nonzero;stroke:#000000;stroke-width:0.5;stroke-linecap:round;stroke-linejoin:round;stroke-miterlimit:4;stroke-dasharray:none;stroke-opacity:1"
       d="m 61.692691,127.66548 c 0,0 19.843333,-10.84791 19.843333,-10.84791 v 21.96041 l -19.839697,11.37822 -0.0036,-22.49072 z"
       id="path882"
       inkscape:connector-curvature="0"
       sodipodi:nodetypes="cccccc" />
    <path
       style="display:inline;fill:#1d8db0;fill-opacity:1;fill-rule:nonzero;stroke:#000000;stroke-width:0.5;stroke-linecap:round;stroke-linejoin:round;stroke-miterlimit:4;stroke-dasharray:none;stroke-opacity:1"
       d="m 81.536024,138.77798 v -21.96041 l 20.108336,10.84791 v 22.48959 c 0,0 -20.108336,-11.37709 -20.108336,-11.37709 z"
       id="path884"
       inkscape:connector-curvature="0"
       sodipodi:nodetypes="ccccc" />
    <path
       style="display:inline;fill:#1d8db0;fill-opacity:1;fill-rule:nonzero;stroke:#000000;stroke-width:0.5;stroke-linecap:round;stroke-linejoin:round;stroke-miterlimit:4;stroke-dasharray:none;stroke-opacity:1"
       d="m 61.692691,150.15507 19.843333,-11.37709 20.108336,11.37709 -20.108336,11.1125 c 0,0 -19.84375,-11.1125 -19.843333,-11.1125 z"
       id="path886"
       inkscape:connector-curvature="0"
       sodipodi:nodetypes="ccccc" />
  </g>
  <g
     inkscape:groupmode="layer"
     id="layer3"
     inkscape:label="Design"
     style="display:inline"
     transform="translate(-0.01507277,-0.08782689)">
    <path
       transform="translate(-61.427691,-116.47976)"
       style="display:inline;fill:#ffffff;fill-opacity:1;fill-rule:nonzero;stroke:#000000;stroke-width:0.26458332;stroke-miterlimit:4;stroke-dasharray:none;stroke-opacity:1"
       d="m 80.097489,123.42415 -6.943566,4.00707 m -1.170588,-2.18886 7.055821,-3.93488"
       id="rect4653"
       inkscape:connector-curvature="0"
       sodipodi:nodetypes="cccc" />
    <path
       transform="translate(-61.427691,-116.47976)"
       style="display:inline;fill:#ffffff;fill-opacity:1;fill-rule:nonzero;stroke:#000000;stroke-width:0.26458332;stroke-miterlimit:4;stroke-dasharray:none;stroke-opacity:1"
       d="m 91.925613,129.38156 -0.125717,8.00267 m 2.513444,0.14319 0.0026,-8.0757"
       id="rect4653-5-1-1"
       inkscape:connector-curvature="0"
       sodipodi:nodetypes="cccc" />
    <path
       transform="translate(-61.427691,-116.47976)"
       style="display:inline;fill:#ffffff;fill-opacity:1;fill-rule:nonzero;stroke:#000000;stroke-width:0.26458332;stroke-miterlimit:4;stroke-dasharray:none;stroke-opacity:1"
       d="m 69.384772,129.60439 -0.125716,8.00267 m 2.481926,-0.0374 0.03407,-7.89514"
       id="rect4653-5-1-1-1"
       inkscape:connector-curvature="0"
       sodipodi:nodetypes="cccc" />
    <path
       transform="translate(-61.427691,-116.47976)"
       style="display:inline;fill:#ffffff;fill-opacity:1;fill-rule:nonzero;stroke:#000000;stroke-width:0.26458332;stroke-miterlimit:4;stroke-dasharray:none;stroke-opacity:1"
       d="m 78.774573,133.47831 -6.614583,-3.70416 m 1.322917,-2.11667 6.879166,3.96875"
       id="rect4653-6"
       inkscape:connector-curvature="0"
       sodipodi:nodetypes="cccc" />
    <path
       transform="translate(-61.427691,-116.47976)"
       style="display:inline;fill:#ffffff;fill-opacity:1;fill-rule:nonzero;stroke:#000000;stroke-width:0.26458332;stroke-miterlimit:4;stroke-dasharray:none;stroke-opacity:1"
       d="m 80.362073,135.59498 -0.10918,8.11015 m 2.481926,-0.0374 0.0093,-7.98767"
       id="rect4653-5-1-1-5-9"
       inkscape:connector-curvature="0"
       sodipodi:nodetypes="cccc" />
    <path
       transform="translate(-61.427691,-116.47976)"
       style="display:inline;fill:#ffffff;fill-opacity:1;fill-rule:nonzero;stroke:#000000;stroke-width:0.26458332;stroke-miterlimit:4;stroke-dasharray:none;stroke-opacity:1"
       d="m 78.774573,146.17831 -6.614583,-3.70416 m 1.322917,-2.11667 6.879166,3.96875"
       id="rect4653-6-5"
       inkscape:connector-curvature="0"
       sodipodi:nodetypes="cccc" />
    <path
       transform="translate(-61.427691,-116.47976)"
       style="display:inline;fill:#ffffff;fill-opacity:1;fill-rule:nonzero;stroke:#000000;stroke-width:0.26458332;stroke-miterlimit:4;stroke-dasharray:none;stroke-opacity:1"
       d="m 83.511713,123.12139 6.727856,4.34051 m 1.170588,-2.18886 -6.899888,-4.164"
       id="rect4653-5"
       inkscape:connector-curvature="0"
       sodipodi:nodetypes="cccc" />
    <path
       transform="translate(-61.427691,-116.47976)"
       style="display:inline;fill:#ffffff;fill-opacity:1;fill-rule:nonzero;stroke:#000000;stroke-width:0.04677217;stroke-miterlimit:4;stroke-dasharray:none;stroke-opacity:1"
       d="m 86.97223,125.17302 c -1.696236,-1.09428 -3.092384,-1.99793 -3.102552,-2.0081 -0.01016,-0.0102 0.06714,-0.1319 0.171802,-0.27051 0.237863,-0.31505 0.492723,-0.86401 0.564886,-1.21676 0.03026,-0.14791 0.06708,-0.26894 0.08182,-0.26894 0.01474,0 1.430031,0.84701 3.145089,1.88225 l 3.118288,1.88225 -0.209362,0.25704 c -0.285081,0.35 -0.511485,0.8462 -0.606602,1.32945 l -0.07931,0.40293 z"
       id="path4850"
       inkscape:connector-curvature="0" />
    <path
       transform="translate(-61.427691,-116.47976)"
       style="display:inline;fill:#ffffff;fill-opacity:1;fill-rule:nonzero;stroke:#000000;stroke-width:0.04677217;stroke-miterlimit:4;stroke-dasharray:none;stroke-opacity:1"
       d="m 73.521946,126.82041 c -0.142029,-0.55583 -0.388104,-0.99516 -0.784021,-1.39976 -0.144085,-0.14725 -0.252651,-0.27591 -0.241261,-0.28591 0.03649,-0.032 6.249226,-3.48913 6.317229,-3.51522 0.04725,-0.0181 0.08135,0.0433 0.122772,0.22114 0.0887,0.3808 0.371626,0.89516 0.673777,1.22491 l 0.274378,0.29943 -0.152423,0.0926 c -0.08383,0.051 -1.3837,0.80256 -2.888594,1.67024 -1.504895,0.86769 -2.856648,1.64771 -3.003897,1.73337 l -0.267724,0.15577 z"
       id="path4852"
       inkscape:connector-curvature="0" />
    <path
       transform="translate(-61.427691,-116.47976)"
       style="display:inline;fill:#ffffff;fill-opacity:1;fill-rule:nonzero;stroke:#000000;stroke-width:0.04677217;stroke-miterlimit:4;stroke-dasharray:none;stroke-opacity:1"
       d="m 75.604341,131.53118 -3.133736,-1.75511 0.30402,-0.31452 c 0.326308,-0.33757 0.610812,-0.83739 0.710081,-1.24749 0.03114,-0.12862 0.07114,-0.25146 0.0889,-0.27298 0.01775,-0.0215 1.440008,0.77301 3.160546,1.76562 l 3.128254,1.80475 -0.282226,0.295 c -0.301329,0.31496 -0.594754,0.83142 -0.69428,1.222 -0.03233,0.12689 -0.07882,0.23682 -0.103309,0.24428 -0.02447,0.007 -1.454698,-0.77624 -3.178252,-1.74155 z"
       id="path4854"
       inkscape:connector-curvature="0" />
    <path
       transform="translate(-61.427691,-116.47976)"
       style="display:inline;fill:#ffffff;fill-opacity:1;fill-rule:nonzero;stroke:#000000;stroke-width:0.04677217;stroke-miterlimit:4;stroke-dasharray:none;stroke-opacity:1"
       d="m 69.434366,135.94874 c 0.01553,-0.78124 0.04203,-2.39213 0.05891,-3.57975 0.01688,-1.18763 0.04151,-2.17015 0.05474,-2.18338 0.01323,-0.0132 0.170632,0.0166 0.349779,0.0663 0.389573,0.10803 1.100563,0.12115 1.463469,0.027 l 0.244054,-0.0633 v 3.52445 c 0,1.93844 -0.0158,3.5242 -0.03508,3.52389 -0.01929,-2.6e-4 -0.150842,-0.0316 -0.292328,-0.0696 -0.479896,-0.12881 -1.07669,-0.0812 -1.766093,0.14081 l -0.105685,0.034 z"
       id="path4856"
       inkscape:connector-curvature="0" />
    <path
       transform="translate(-61.427691,-116.47976)"
       style="display:inline;fill:#ffffff;fill-opacity:1;fill-rule:nonzero;stroke:#000000;stroke-width:0.04677217;stroke-miterlimit:4;stroke-dasharray:none;stroke-opacity:1"
       d="m 75.953086,144.42819 c -1.403123,-0.78877 -2.789907,-1.56805 -3.081748,-1.73173 l -0.530617,-0.29762 0.217551,-0.18595 c 0.398561,-0.34068 0.750602,-0.91083 0.883828,-1.4314 l 0.0609,-0.23795 2.968332,1.71085 c 1.632579,0.94098 2.976099,1.7176 2.985595,1.72585 0.0095,0.008 -0.08123,0.12648 -0.201615,0.26276 -0.276791,0.31333 -0.565632,0.90285 -0.642742,1.31184 -0.03274,0.17364 -0.07051,0.31386 -0.08394,0.31159 -0.01341,-0.002 -1.172422,-0.64948 -2.575541,-1.43824 z"
       id="path4858"
       inkscape:connector-curvature="0" />
    <path
       transform="translate(-61.427691,-116.47976)"
       style="display:inline;fill:#ffffff;fill-opacity:1;fill-rule:nonzero;stroke:#000000;stroke-width:0.04677217;stroke-miterlimit:4;stroke-dasharray:none;stroke-opacity:1"
       d="m 80.416236,142.4163 c 0.01558,-0.55687 0.04158,-2.11884 0.05775,-3.47106 l 0.02939,-2.45857 0.373808,0.10827 c 0.438349,0.12696 1.085215,0.1453 1.474047,0.0418 l 0.245554,-0.0654 v 3.43352 c 0,1.88844 -0.01079,3.43352 -0.02397,3.43352 -0.0132,0 -0.175884,-0.0421 -0.361545,-0.0935 -0.444103,-0.12307 -1.069684,-0.12507 -1.503373,-0.005 l -0.320003,0.0887 z"
       id="path4860"
       inkscape:connector-curvature="0" />
    <ellipse
       transform="translate(-61.427691,-116.47976)"
       style="fill:#ffffff;fill-opacity:1;fill-rule:nonzero;stroke:#000000;stroke-width:0.26458332;stroke-miterlimit:4;stroke-dasharray:none;stroke-opacity:1"
       id="path893"
       cx="70.680763"
       cy="127.45519"
       rx="2.7595577"
       ry="2.759558" />
    <ellipse
       transform="translate(-61.427691,-116.47976)"
       style="fill:#ffffff;fill-opacity:1;fill-rule:nonzero;stroke:#000000;stroke-width:0.26458332;stroke-miterlimit:4;stroke-dasharray:none;stroke-opacity:1"
       id="path893-9-2"
       cx="92.995499"
       cy="127.2606"
       rx="2.7595577"
       ry="2.759558" />
    <ellipse
       transform="translate(-61.427691,-116.47976)"
       style="fill:#ffffff;fill-opacity:1;fill-rule:nonzero;stroke:#000000;stroke-width:0.26458332;stroke-miterlimit:4;stroke-dasharray:none;stroke-opacity:1"
       id="path893-9-8"
       cx="92.929352"
       cy="139.96062"
       rx="2.7595577"
       ry="2.759558" />
    <ellipse
       transform="translate(-61.427691,-116.47976)"
       style="fill:#ffffff;fill-opacity:1;fill-rule:nonzero;stroke:#000000;stroke-width:0.26458332;stroke-miterlimit:4;stroke-dasharray:none;stroke-opacity:1"
       id="path893-9-3"
       cx="70.638206"
       cy="140.02676"
       rx="2.7595577"
       ry="2.759558" />
    <ellipse
       transform="translate(-61.427691,-116.47976)"
       style="fill:#ffffff;fill-opacity:1;fill-rule:nonzero;stroke:#000000;stroke-width:0.26458332;stroke-miterlimit:4;stroke-dasharray:none;stroke-opacity:1"
       id="path893-9-7"
       cx="81.684563"
       cy="133.80905"
       rx="2.7595577"
       ry="2.759558" />
    <ellipse
       transform="translate(-61.427691,-116.47976)"
       style="fill:#ffffff;fill-opacity:1;fill-rule:nonzero;stroke:#000000;stroke-width:0.26458332;stroke-miterlimit:4;stroke-dasharray:none;stroke-opacity:1"
       id="path893-9-3-7"
       cx="81.453056"
       cy="146.14525"
       rx="2.7595577"
       ry="2.759558" />
    <ellipse
       transform="translate(-61.427691,-116.47976)"
       style="fill:#ffffff;fill-opacity:1;fill-rule:nonzero;stroke:#000000;stroke-width:0.26458332;stroke-miterlimit:4;stroke-dasharray:none;stroke-opacity:1"
       id="path893-6"
       cx="81.727119"
       cy="121.56819"
       rx="2.7595577"
       ry="2.759558" />
    <path
       transform="translate(-61.427691,-116.47976)"
       style="fill:#ffffff;fill-opacity:1;fill-rule:nonzero;stroke:#000000;stroke-width:0.09354433;stroke-miterlimit:4;stroke-dasharray:none;stroke-opacity:1"
       d="m 93.700948,137.14009 c -0.128622,-0.0528 -0.565623,-0.0778 -0.971116,-0.0556 l -0.737256,0.0403 0.04262,-3.4923 c 0.02344,-1.92077 0.06057,-3.51026 0.08252,-3.53221 0.02193,-0.0219 0.232974,-0.004 0.468953,0.0403 0.284567,0.0532 0.623181,0.0401 1.005528,-0.0386 l 0.576474,-0.11879 v 3.63237 c 0,3.88554 0.02127,3.72517 -0.467723,3.5246 z"
       id="path4879"
       inkscape:connector-curvature="0" />
  </g>
  <g
     inkscape:groupmode="layer"
     id="layer4"
     inkscape:label="Text"
     style="display:inline"
     transform="translate(-0.01507277,-0.08782689)">
    <text
       transform="translate(-61.427691,-116.47976)"
       xml:space="preserve"
       style="font-style:normal;font-variant:normal;font-weight:normal;font-stretch:normal;font-size:16.93333244px;line-height:1.25;font-family:sans-serif;-inkscape-font-specification:'sans-serif, Normal';font-variant-ligatures:normal;font-variant-caps:normal;font-variant-numeric:normal;font-feature-settings:normal;text-align:center;letter-spacing:0px;word-spacing:0px;writing-mode:lr-tb;text-anchor:middle;fill:#ffffff;fill-opacity:1;stroke:#000000;stroke-width:0.2;stroke-miterlimit:4;stroke-dasharray:none;stroke-opacity:1"
       x="81.283333"
       y="153.97739"
       id="text880"><tspan
         sodipodi:role="line"
         id="tspan878"
         x="81.283333"
         y="153.97739"
         style="font-style:normal;font-variant:normal;font-weight:normal;font-stretch:normal;font-size:6.3499999px;font-family:sans-serif;-inkscape-font-specification:'sans-serif, Normal';font-variant-ligatures:normal;font-variant-caps:normal;font-variant-numeric:normal;font-feature-settings:normal;text-align:center;writing-mode:lr-tb;text-anchor:middle;fill:#ffffff;fill-opacity:1;stroke:#000000;stroke-width:0.2;stroke-miterlimit:4;stroke-dasharray:none;stroke-opacity:1">mldoeR</tspan></text>
  </g>
</svg>
